<svg xmlns="http://www.w3.org/2000/svg"  viewBox="0 0 100 100" width="100px" height="100px"><polygon fill="#ff8405" points="80,40 55,31 55,17 80,26"/><circle cx="39" cy="65" r="16" fill="#ff8405"/><path fill="#4343bf" d="M39,84c-10.477,0-19-8.523-19-19s8.523-19,19-19s19,8.523,19,19S49.477,84,39,84z M39,52 c-7.168,0-13,5.832-13,13s5.832,13,13,13s13-5.832,13-13S46.168,52,39,52z"/><path fill="#3abcf8" d="M39,88c-6.144,0-11.919-2.393-16.264-6.737C18.393,76.919,16,71.144,16,65 s2.393-11.919,6.737-16.264l7.07,7.072C27.353,58.264,26,61.528,26,65s1.353,6.736,3.808,9.191C32.264,76.647,35.528,78,39,78 s6.736-1.353,9.191-3.808l7.072,7.07C50.919,85.607,45.144,88,39,88z"/><rect width="6" height="47" x="52" y="17" fill="#4343bf"/><path fill="#4343bf" d="M83,44.269l-31-11.16V12.731l31,11.16V44.269z M58,28.892l19,6.84v-7.623l-19-6.84V28.892z"/><path fill="#edf7f5" d="M35,65h-4c0-4.411,3.589-8,8-8v4C36.794,61,35,62.794,35,65z"/></svg>